<?xml version="1.0" encoding="UTF-8"?><svg width="256" height="256" version="1.1" viewBox="0 0 256 256.00001" xmlns="http://www.w3.org/2000/svg" xmlns:cc="http://creativecommons.org/ns#" xmlns:dc="http://purl.org/dc/elements/1.1/" xmlns:rdf="http://www.w3.org/1999/02/22-rdf-syntax-ns#"><defs><linearGradient id="a" x1="1" x2="47" gradientTransform="matrix(5.4281 0 0 5.5397 -256 -4.5274)" gradientUnits="userSpaceOnUse"><stop stop-color="#383488" offset="0"/><stop stop-color="#3e3997" offset="1"/></linearGradient></defs><metadata><rdf:RDF><cc:Work rdf:about=""><dc:format>image/svg+xml</dc:format><dc:type rdf:resource="http://purl.org/dc/dcmitype/StillImage"/><dc:title/></cc:Work></rdf:RDF></metadata><g transform="matrix(5.5397 0 0 5.4281 -4.5397 -4.5467)"><path d="m1 43v0.25c0 2.216 1.784 4 4 4h38c2.216 0 4-1.784 4-4v-0.25c0 2.216-1.784 4-4 4h-38c-2.216 0-4-1.784-4-4zm0 0.5v0.5c0 2.216 1.784 4 4 4h38c2.216 0 4-1.784 4-4v-0.5c0 2.216-1.784 4-4 4h-38c-2.216 0-4-1.784-4-4z" opacity=".02"/><path d="m1 43.25v0.25c0 2.216 1.784 4 4 4h38c2.216 0 4-1.784 4-4v-0.25c0 2.216-1.784 4-4 4h-38c-2.216 0-4-1.784-4-4z" opacity=".05"/><path d="m1 43v0.25c0 2.216 1.784 4 4 4h38c2.216 0 4-1.784 4-4v-0.25c0 2.216-1.784 4-4 4h-38c-2.216 0-4-1.784-4-4z" opacity=".1"/></g><rect transform="rotate(-90)" x="-250.57" y="1" width="249.69" height="254.82" rx="21.712" fill="url(#a)" stroke-width="5.4836"/><g transform="matrix(5.5397 0 0 5.4281 -4.5397 -4.5467)"><g transform="translate(0,-1004.4)"><path d="m1 1043.4v4c0 2.216 1.784 4 4 4h38c2.216 0 4-1.784 4-4v-4c0 2.216-1.784 4-4 4h-38c-2.216 0-4-1.784-4-4z" opacity=".1"/></g></g><g transform="matrix(5.5397 0 0 5.4281 -16.652 -9.9748)"><g transform="translate(1,1)"><g opacity=".1"><path d="m15.988 16.523v14.453h2.652v-5.52c0.348 0.066 0.805 0.086 1.305 0.086 1.891 0 3.566-0.5 4.633-1.566 0.824-0.781 1.258-1.934 1.258-3.324 0-1.371-0.563-2.523-1.434-3.238-0.934-0.785-2.371-1.195-4.324-1.195-1.805 0-3.133 0.129-4.09 0.305m2.652 6.824v-4.953c0.285-0.066 0.805-0.133 1.543-0.133 1.848 0 2.98 0.871 2.98 2.5 0 1.719-1.219 2.695-3.219 2.695-0.543 0-0.977-0.023-1.305-0.109"/></g></g></g><g transform="matrix(5.5397 0 0 5.4281 -11.112 -9.9748)"><path d="m15.988 16.523v14.453h2.652v-5.52c0.348 0.066 0.805 0.086 1.305 0.086 1.891 0 3.566-0.5 4.633-1.566 0.824-0.781 1.258-1.934 1.258-3.324 0-1.371-0.563-2.523-1.434-3.238-0.934-0.785-2.371-1.195-4.324-1.195-1.805 0-3.133 0.129-4.09 0.305m2.652 6.824v-4.953c0.285-0.066 0.805-0.133 1.543-0.133 1.848 0 2.98 0.871 2.98 2.5 0 1.719-1.219 2.695-3.219 2.695-0.543 0-0.977-0.023-1.305-0.109" fill="#7cb9f4"/></g><path d="m136.58 138.76c0 14.106 9.1332 24.312 21.974 24.312 6.7899 0 12.081-2.9704 15.089-7.3707h0.19489v4.2896c0 10.736-6.3602 15.045-14.854 15.045-6.2453 0-11.766-1.9546-15.089-3.7792l-2.8479 9.4987c4.4517 2.672 11.456 3.9863 18.031 3.9863 7.1047 0 14.539-1.4299 19.945-6.0372 5.406-4.7036 7.6293-12.147 7.6293-22.584v-28.226c0-6.846 0.21483-10.929 0.42966-14.313h-11.356l-0.5246 6.6582h-0.21483c-2.4382-4.1018-7.1047-7.7848-14.949-7.7848-12.411 0-23.457 9.9319-23.457 26.291m13.27-0.41416c0-10.12 5.406-16.248 12.725-16.248 5.5209 0 9.2331 3.4615 10.617 8.0688 0.31477 1.0158 0.42966 2.2579 0.42966 3.3652v8.0881c0 1.4299-0.21483 3.1582-0.5446 4.4966-1.4839 4.4966-5.7207 7.5585-10.597 7.5585-8.1789 0-12.626-6.846-12.626-15.329" opacity=".1" stroke-width="4.9045"/><path d="m136.58 133.95c0 14.106 9.1332 24.312 21.974 24.312 6.7899 0 12.081-2.9704 15.089-7.3708h0.19489v4.2896c0 10.736-6.3602 15.045-14.854 15.045-6.2453 0-11.766-1.9546-15.089-3.7792l-2.8479 9.4987c4.4517 2.672 11.456 3.9863 18.031 3.9863 7.1047 0 14.539-1.4298 19.945-6.0371 5.406-4.7036 7.6293-12.147 7.6293-22.584v-28.226c0-6.846 0.21483-10.929 0.42966-14.313h-11.356l-0.5246 6.6582h-0.21483c-2.4382-4.1018-7.1047-7.7848-14.949-7.7848-12.411 0-23.457 9.932-23.457 26.291m13.27-0.41416c0-10.12 5.406-16.248 12.725-16.248 5.5209 0 9.2331 3.4615 10.617 8.0688 0.31477 1.0158 0.42966 2.2579 0.42966 3.3652v8.0881c0 1.4299-0.21483 3.1582-0.5446 4.4966-1.4839 4.4966-5.7207 7.5585-10.597 7.5585-8.1789 0-12.626-6.846-12.626-15.329" fill="#7cb9f4" stroke-width="4.9045"/></svg>
